name D:\school\WTK\thesis\model\3dpredictsim\Results\test_WL_v2\Fal_s1_bCst_PF_Natali2010_ls135_k90_Tmtp_ig24_v2.mot
datacolumns 128
datarows 4
range 0.00000000 0.03122183
endheader
time	pelvis_tilt	pelvis_list	pelvis_rotation	pelvis_tx	pelvis_ty	pelvis_tz	hip_flexion_l	hip_adduction_l	hip_rotation_l	hip_flexion_r	hip_adduction_r	hip_rotation_r	knee_angle_l	knee_angle_r	ankle_angle_l	ankle_angle_r	subtalar_angle_l	subtalar_angle_r	tmt_angle_l	tmt_angle_r	mtp_angle_l	mtp_angle_r	lumbar_extension	lumbar_bending	lumbar_rotation	arm_flex_l	arm_add_l	arm_rot_l	arm_flex_r	arm_add_r	arm_rot_r	elbow_flex_l	elbow_flex_r	pro_sup_l	pro_sup_r	glut_med1_l/activation	glut_med2_l/activation	glut_med3_l/activation	glut_min1_l/activation	glut_min2_l/activation	glut_min3_l/activation	semimem_l/activation	semiten_l/activation	bifemlh_l/activation	bifemsh_l/activation	sar_l/activation	add_long_l/activation	add_brev_l/activation	add_mag1_l/activation	add_mag2_l/activation	add_mag3_l/activation	tfl_l/activation	pect_l/activation	grac_l/activation	glut_max1_l/activation	glut_max2_l/activation	glut_max3_l/activation	iliacus_l/activation	psoas_l/activation	quad_fem_l/activation	gem_l/activation	peri_l/activation	rect_fem_l/activation	vas_med_l/activation	vas_int_l/activation	vas_lat_l/activation	med_gas_l/activation	lat_gas_l/activation	soleus_l/activation	tib_post_l/activation	flex_dig_l/activation	flex_hal_l/activation	tib_ant_l/activation	per_brev_l/activation	per_long_l/activation	per_tert_l/activation	ext_dig_l/activation	ext_hal_l/activation	ercspn_l/activation	intobl_l/activation	extobl_l/activation	glut_med1_r/activation	glut_med2_r/activation	glut_med3_r/activation	glut_min1_r/activation	glut_min2_r/activation	glut_min3_r/activation	semimem_r/activation	semiten_r/activation	bifemlh_r/activation	bifemsh_r/activation	sar_r/activation	add_long_r/activation	add_brev_r/activation	add_mag1_r/activation	add_mag2_r/activation	add_mag3_r/activation	tfl_r/activation	pect_r/activation	grac_r/activation	glut_max1_r/activation	glut_max2_r/activation	glut_max3_r/activation	iliacus_r/activation	psoas_r/activation	quad_fem_r/activation	gem_r/activation	peri_r/activation	rect_fem_r/activation	vas_med_r/activation	vas_int_r/activation	vas_lat_r/activation	med_gas_r/activation	lat_gas_r/activation	soleus_r/activation	tib_post_r/activation	flex_dig_r/activation	flex_hal_r/activation	tib_ant_r/activation	per_brev_r/activation	per_long_r/activation	per_tert_r/activation	ext_dig_r/activation	ext_hal_r/activation	ercspn_r/activation	intobl_r/activation	extobl_r/activation	
          0.00000000	         -2.93017582	         -1.43703632	          4.24433699	          0.00000000	          0.91730605	         -0.00211425	        -16.50286168	         -0.45272026	         13.68856659	         32.04330849	          3.00334482	          0.61517353	         -5.31963353	        -19.62675956	          3.06192720	          4.03271741	         16.41902655	          2.31586432	          2.63362800	         -8.09320477	          8.75278664	         29.12119963	         -2.76999992	          0.47567062	         -1.27679962	          5.26709209	        -13.45064944	         13.57104711	         -3.60738889	        -13.52780705	          5.52955489	         31.70496828	         18.01327397	         86.51662706	         86.51662706	          0.42583738	          0.13843228	          0.09558994	          0.49108659	          0.30102499	          0.14634199	          0.05000029	          0.05000009	          0.05000006	          0.08164664	          0.13604129	          0.05000005	          0.05000005	          0.05000008	          0.05000024	          0.05000013	          0.37501760	          0.05000030	          0.05000037	          0.05689937	          0.05000144	          0.05000027	          0.51202321	          0.60391467	          0.05000031	          0.05016297	          0.08126306	          0.23221549	          0.05000013	          0.05000014	          0.05000013	          0.36282008	          0.43725864	          0.33281533	          0.25308648	          0.17177180	          0.24369935	          0.05000001	          0.09237838	          0.20473242	          0.05000007	          0.05000002	          0.05000008	          0.05000000	          0.05000000	          0.05000000	          0.05000011	          0.05000016	          0.05000021	          0.05000041	          0.05000026	          0.05000020	          0.06766050	          0.06700535	          0.30490426	          0.05000009	          0.05000015	          0.15920367	          0.19935724	          0.18528740	          0.17349282	          0.10441383	          0.05000013	          0.05071017	          0.12607847	          0.05000073	          0.06414885	          0.11412013	          0.05822585	          0.05740720	          0.21714672	          0.05000102	          0.05000033	          0.05000012	          0.07772049	          0.07931416	          0.06612571	          0.06865824	          0.05676281	          0.05138394	          0.08215906	          0.05000061	          0.05000058	          0.44675121	          0.18429502	          0.15491054	          0.06914425	          0.38936764	          0.05000054	          0.05867274	          0.11425784	          0.09569977	
          0.01040728	         -2.92847537	         -1.61645490	          4.57497748	          0.01540434	          0.91649819	         -0.00200499	        -16.55678462	         -0.72722479	         13.58396189	         31.54597482	          3.49921643	          0.67776082	         -6.79979035	        -19.13459200	          2.77541653	          3.44480325	         17.24254188	          2.23518350	          1.91083223	         -8.16509868	         10.12872601	         29.92098449	         -2.57940905	          0.72566671	         -1.34016205	          5.06627112	        -13.45523586	         14.00116888	         -4.35244390	        -13.53188288	          5.05434655	         32.75724190	         17.60936781	         86.51662706	         86.51662706	          0.37298205	          0.11796987	          0.08146029	          0.41849659	          0.25652890	          0.12471041	          0.05000038	          0.05000007	          0.05000004	          0.06957803	          0.11593236	          0.05000002	          0.05000002	          0.05000004	          0.05000016	          0.05000013	          0.31958429	          0.05000014	          0.05000008	          0.05000111	          0.05000057	          0.05000017	          0.44284843	          0.59227259	          0.05000002	          0.05000017	          0.06925116	          0.19789056	          0.05000012	          0.05000010	          0.05000010	          0.30918971	          0.37262511	          0.31305665	          0.21567658	          0.14638137	          0.20767694	          0.05000000	          0.07872352	          0.20557756	          0.05000003	          0.05000000	          0.05000005	          0.05000000	          0.05000000	          0.05009663	          0.05867272	          0.05867270	          0.05000007	          0.05867272	          0.05867271	          0.05867262	          0.05867272	          0.05867273	          0.28748182	          0.05000007	          0.05000005	          0.16445113	          0.26272685	          0.17950029	          0.19284703	          0.08898003	          0.05000050	          0.05001777	          0.13862579	          0.05000075	          0.05466696	          0.10094058	          0.05000003	          0.05000003	          0.41071211	          0.05000032	          0.05000013	          0.05000003	          0.10650219	          0.10684361	          0.09093644	          0.05867269	          0.05850285	          0.05867262	          0.07630631	          0.05000024	          0.05000022	          0.50290034	          0.21058048	          0.15971505	          0.09513722	          0.42283950	          0.05000006	          0.05000002	          0.09736878	          0.08155388	
          0.02081455	         -2.92275382	         -1.78792769	          4.87817769	          0.03119407	          0.91579846	         -0.00189704	        -16.55014060	         -0.97672496	         13.46141956	         30.94853602	          3.97734837	          0.78852535	         -8.39895337	        -19.13353545	          2.43458450	          2.79132135	         18.02849633	          2.11659186	          0.94251233	         -8.36618003	         11.85126388	         30.80605353	         -2.35590636	          0.97192016	         -1.39771075	          4.76886007	        -13.46305338	         14.35127535	         -5.13025799	        -13.53361815	          4.64231036	         33.81278787	         17.22876771	         86.51662706	         86.51662706	          0.31784959	          0.10053211	          0.06941921	          0.35663640	          0.21861000	          0.10627630	          0.05000035	          0.05000008	          0.05000010	          0.05929334	          0.09879581	          0.10357283	          0.05055349	          0.05002677	          0.05000081	          0.05000036	          0.27234485	          0.07488466	          0.06248457	          0.05000041	          0.05000027	          0.05000023	          0.37738866	          0.53147503	          0.06884969	          0.06884931	          0.05901497	          0.19412218	          0.08002815	          0.13951474	          0.11866469	          0.26348672	          0.31754540	          0.26678207	          0.18379628	          0.12474398	          0.17697913	          0.05000003	          0.06708700	          0.18460196	          0.05000007	          0.05000002	          0.05000006	          0.05141342	          0.08079204	          0.05124676	          0.05000000	          0.05000000	          0.05000034	          0.05000001	          0.05000001	          0.05000001	          0.05000000	          0.05000002	          0.24633523	          0.05000017	          0.08079203	          0.14014282	          0.30473489	          0.33191335	          0.17165619	          0.07582743	          0.05000002	          0.08284879	          0.11813507	          0.05000007	          0.09316792	          0.13170145	          0.06884980	          0.06884986	          0.65209501	          0.24767633	          0.16063783	          0.06885007	          0.17945781	          0.17717005	          0.15496320	          0.05000000	          0.05000001	          0.05000000	          0.10740111	          0.05000072	          0.05000194	          0.56401604	          0.19478769	          0.15319110	          0.19680038	          0.44241611	          0.05867278	          0.05000000	          0.08297618	          0.06949896	
          0.03122183	         -2.91312863	         -1.96594075	          5.15808006	          0.04734466	          0.91520299	         -0.00182686	        -16.49643701	         -1.21508101	         13.31167634	         30.19548038	          4.37860957	          1.00298352	        -10.08258343	        -19.44411541	          2.06731647	          2.36056317	         18.75347057	          1.94102296	         -0.32746809	         -8.70189513	         13.92658399	         31.87201499	         -2.10010121	          1.22890104	         -1.44524721	          4.38081449	        -13.46589201	         14.62251876	         -5.93620956	        -13.54079569	          4.31236849	         34.87054572	         16.85998330	         86.51662706	         86.51662706	          0.40035682	          0.08567193	          0.05915799	          0.30392012	          0.18629610	          0.09056704	          0.05000073	          0.05000022	          0.05000014	          0.05052889	          0.08419230	          0.08826333	          0.12750374	          0.05867236	          0.05818930	          0.05030263	          0.23208812	          0.06381579	          0.05334064	          0.05867253	          0.05867268	          0.05867274	          0.32160485	          0.52136021	          0.05867275	          0.05867261	          0.05029166	          0.16542795	          0.08397736	          0.11889242	          0.10112432	          0.22453934	          0.27060732	          0.22734759	          0.15662838	          0.10630492	          0.15081890	          0.09404686	          0.07663875	          0.18763903	          0.05000006	          0.09689041	          0.05000016	          0.06325345	          0.06884974	          0.06552183	          0.25587747	          0.05000007	          0.05000007	          0.05000006	          0.05000007	          0.05000014	          0.08647267	          0.10588507	          0.22108051	          0.05000004	          0.06884975	          0.11942758	          0.25969056	          0.28285150	          0.15117551	          0.10350891	          0.05000014	          0.07060270	          0.14736283	          0.05000030	          0.12666088	          0.11223399	          0.05867276	          0.05867281	          0.55570536	          0.21106598	          0.13689327	          0.05867297	          0.15293121	          0.15098161	          0.13205727	          0.05455756	          0.05336054	          0.05446396	          0.09152569	          0.05000011	          0.05000008	          0.48064585	          0.17134131	          0.13054711	          0.16771029	          0.49198829	          0.05000005	          0.05000000	          0.09480582	          0.05922595	
